<?xml version="1.0" ?><svg id="Layer_1" style="enable-background:new 0 0 128 128;" version="1.1" viewBox="0 0 128 128" xml:space="preserve" xmlns="http://www.w3.org/2000/svg" xmlns:xlink="http://www.w3.org/1999/xlink"><style type="text/css">
	.st0{fill:none;stroke:#B5B1BA;stroke-width:4;stroke-linecap:round;stroke-linejoin:round;stroke-miterlimit:10;}
	.st1{fill:none;stroke:#736D7C;stroke-width:4;stroke-linecap:round;stroke-linejoin:round;}
	.st2{fill:none;stroke:#736D7C;stroke-width:4;stroke-linecap:round;stroke-linejoin:round;stroke-dasharray:0.1112,8.8944;}
	.st3{fill:none;stroke:#3E8DFF;stroke-width:4;stroke-linecap:round;stroke-linejoin:round;stroke-miterlimit:10;}
	.st4{fill:none;stroke:#E7E5EA;stroke-width:4;stroke-linecap:round;stroke-linejoin:round;stroke-miterlimit:10;}
	.st5{fill:none;stroke:#F4B463;stroke-width:4;stroke-linecap:round;stroke-linejoin:round;stroke-miterlimit:10;}
	.st6{fill:none;stroke:#736D7C;stroke-width:4;stroke-linecap:round;stroke-linejoin:round;stroke-dasharray:0.107,8.562;}
	.st7{fill:none;stroke:#15BA77;stroke-width:4;stroke-linecap:round;stroke-linejoin:round;stroke-miterlimit:10;}
	.st8{fill:none;stroke:#B5B1BA;stroke-width:4;stroke-linecap:round;stroke-linejoin:round;}

		.st9{fill-rule:evenodd;clip-rule:evenodd;fill:none;stroke:#B5B1BA;stroke-width:4;stroke-linecap:round;stroke-linejoin:round;stroke-miterlimit:10;}
	.st10{fill:none;stroke:#736D7C;stroke-width:4;stroke-linecap:round;stroke-linejoin:round;stroke-dasharray:0.0874,6.9897;}
	.st11{fill:none;stroke:#EF5B77;stroke-width:4;stroke-linecap:round;stroke-linejoin:round;stroke-miterlimit:10;}

		.st12{fill:none;stroke:#736D7C;stroke-width:4;stroke-linecap:round;stroke-linejoin:round;stroke-miterlimit:10;stroke-dasharray:0.1,8;}
	.st13{fill:none;stroke:#736D7C;stroke-width:4;stroke-linecap:round;stroke-linejoin:round;stroke-miterlimit:10;}
	.st14{fill:none;stroke:#736D7C;stroke-width:4;stroke-linecap:round;stroke-linejoin:round;stroke-dasharray:0.0946,7.5702;}

		.st15{fill-rule:evenodd;clip-rule:evenodd;fill:none;stroke:#F4B463;stroke-width:4;stroke-linecap:round;stroke-linejoin:round;stroke-miterlimit:10;}
	.st16{fill:none;stroke:#736D7C;stroke-width:4;stroke-linecap:round;stroke-linejoin:round;stroke-dasharray:0.1043,8.3441;}
	.st17{fill-rule:evenodd;clip-rule:evenodd;fill:#736D7C;}
	.st18{fill-rule:evenodd;clip-rule:evenodd;fill:#EF5B77;}
	.st19{fill:none;stroke:#736D7C;stroke-width:4;stroke-linecap:round;stroke-linejoin:round;stroke-dasharray:0.1037,8.2967;}
	.st20{fill:none;stroke:#736D7C;stroke-width:4;stroke-linecap:round;stroke-linejoin:round;stroke-dasharray:0.1153,9.2231;}
	.st21{fill:#F4B463;}
	.st22{fill:none;stroke:#736D7C;stroke-width:4;stroke-linecap:round;stroke-linejoin:round;stroke-dasharray:0.0905,7.2397;}

		.st23{fill-rule:evenodd;clip-rule:evenodd;fill:none;stroke:#E7E5EA;stroke-width:4;stroke-linecap:round;stroke-linejoin:round;stroke-miterlimit:10;}

		.st24{fill-rule:evenodd;clip-rule:evenodd;fill:none;stroke:#3E8DFF;stroke-width:4;stroke-linecap:round;stroke-linejoin:round;stroke-miterlimit:10;}
	.st25{fill-rule:evenodd;clip-rule:evenodd;fill:#E7E5EA;}
	.st26{fill:none;stroke:#736D7C;stroke-width:4;stroke-linecap:round;stroke-linejoin:round;stroke-dasharray:0.105,8.3975;}
	.st27{fill:none;stroke:#736D7C;stroke-width:4;stroke-linecap:round;stroke-linejoin:round;stroke-dasharray:0.0863,6.9068;}
	.st28{fill:none;stroke:#15BA77;stroke-width:4;stroke-linecap:round;stroke-linejoin:round;}
	.st29{fill:none;stroke:#15BA77;stroke-width:4;stroke-linecap:round;stroke-linejoin:round;stroke-dasharray:0.1112,8.8944;}
	.st30{fill:#3E8DFF;}
	.st31{fill:#15BA77;}
	.st32{fill:#EF5B77;}
	.st33{fill:#FAC842;}
	.st34{fill:#9660AD;}
	.st35{fill:none;stroke:#736D7C;stroke-width:4;stroke-linecap:round;stroke-linejoin:round;stroke-dasharray:0.0965,7.7213;}
	.st36{fill:none;stroke:#15BA77;stroke-width:4;stroke-linecap:round;stroke-linejoin:round;stroke-dasharray:0.0966,7.7295;}

		.st37{fill:none;stroke:#15BA77;stroke-width:4;stroke-linecap:round;stroke-linejoin:round;stroke-miterlimit:10;stroke-dasharray:0.1,8;}
	.st38{fill:none;stroke:#15BA77;stroke-width:4;stroke-linecap:round;stroke-linejoin:round;stroke-dasharray:0.0951,7.6059;}
</style><path class="st0" d="M113,57V22c0-3.314-2.686-6-6-6H21c-3.314,0-6,2.686-6,6v84c0,3.314,2.686,6,6,6h86c3.314,0,6-2.686,6-6v-6.333  "/><line class="st0" x1="15" x2="112" y1="34" y2="34"/><g><g><line class="st1" x1="26" x2="26.05" y1="25" y2="25"/><line class="st2" x1="34.944" x2="39.503" y1="25" y2="25"/><line class="st1" x1="43.95" x2="44" y1="25" y2="25"/></g></g><line class="st4" x1="32" x2="41" y1="50" y2="50"/><line class="st4" x1="40" x2="49" y1="57" y2="57"/><line class="st4" x1="32" x2="49" y1="74" y2="74"/><line class="st4" x1="32" x2="40" y1="98" y2="98"/><line class="st4" x1="86" x2="95" y1="57" y2="57"/><line class="st4" x1="57" x2="78" y1="57" y2="57"/><line class="st4" x1="40" x2="49" y1="90" y2="90"/><line class="st4" x1="57" x2="75" y1="90" y2="90"/><line class="st4" x1="40" x2="57" y1="82" y2="82"/><line class="st4" x1="65" x2="73" y1="82" y2="82"/><line class="st4" x1="40" x2="61" y1="65" y2="65"/><g><path class="st0" d="M76,61v11l-6,6l6,6v11c0,2.209,1.791,4,4,4h34c2.209,0,4-1.791,4-4V61c0-2.209-1.791-4-4-4H80   C77.791,57,76,58.791,76,61z"/><polygon class="st5" points="97,64.375 82.783,89 111.217,89  "/><line class="st5" x1="97" x2="97" y1="76" y2="80"/><circle class="st21" cx="97" cy="84" r="2"/></g></svg>
