<!--
 Copyright (c) 2023 - 2025 Chair for Design Automation, TUM
 Copyright (c) 2025 Munich Quantum Software Company GmbH
 All rights reserved.

 SPDX-License-Identifier: MIT

 Licensed under the MIT License
-->

<svg version="1" xmlns="http://www.w3.org/2000/svg" width="1365.333" height="1365.333" viewBox="0 0 1024.000000 1024.000000"><path d="M512 138.4V214h-4.3c-6.3 0-19 3.5-27.6 7.5-39.7 18.8-58.1 64-42.7 104.9 1.4 3.7 3.6 8.6 4.8 10.7l2.2 3.9-3 3.1c-5.4 5.8-51.8 50.2-72.4 69.5-39.2 36.5-118.1 106.6-152.2 135.2-1.5 1.2-2.4.8-8.5-3.8-24.7-18.7-58.1-22.1-85.8-8.7-17.5 8.5-31 22.1-39.4 39.7-6.3 13.2-7.6 19.3-7.5 35.5 0 16.1 1.3 22.1 7.6 35.7l4 8.7-4.9 5.8c-13.7 16-20.4 31.3-20.5 47.3-.2 19.6 8.1 36.9 26.6 55.6 28.1 28.2 78.4 55.2 152.1 81.4 10.5 3.7 23.7 8.9 29.5 11.5 44.7 20.1 103.3 37.1 163.7 47.5 9.8 1.7 19 3.3 20.5 3.6l2.8.6.2 37.1.3 37.2 57.8.3 57.7.2v-75.6l2.8-.2c5.7-.4 33.6-5.5 53.7-9.7 48.8-10.3 92.6-24.2 133.5-42.2 7.4-3.3 16.7-7 20.5-8.3 26.2-8.5 61.4-23.1 88.5-36.6 33.2-16.7 51.8-29.2 69.6-46.9 12.7-12.7 19.2-22.3 23.7-35.3 2.7-7.6 3.1-10.1 3.1-19.2s-.4-11.6-3.1-19.2c-3.5-10-9.9-20.8-17.3-29l-5.1-5.7 4-8.3c11.1-22.9 11.3-49.1.6-71.7-19.9-41.9-69.1-59.7-110.7-39.9-5.1 2.5-11.5 6.3-14.3 8.4-2.7 2.2-5.6 4.3-6.2 4.8-1.4.8-9.4-5.9-57.8-48.4-61.8-54.2-117.1-105.2-167.8-154.9l-4.8-4.7 3.4-7c6.5-13.1 8.8-22.8 8.9-37.4 0-39.4-26.3-72.4-65.2-81.5-3.6-.8-8.2-1.5-10.2-1.5H519l-.2-75.3-.3-75.2-3.2-.3-3.3-.3v75.5zm26.5 84c20.8 6.8 36.7 20.3 46 39.1 6.1 12.3 8.5 22.1 8.5 35.5 0 34.4-20.7 62.8-54 74.1-8.8 3-10.5 3.3-23 3.3-11.2.1-14.8-.3-21.3-2.2-44.7-12.9-68.4-59-52.6-102.5 8.9-24.6 30.2-43.2 56.2-49.2 10.1-2.3 30.2-1.4 40.2 1.9zM469 366c3.6 2.5 10.1 5.9 14.4 7.6l7.9 3.2-.2 8.4c-1 39.3-17.9 90.3-46.6 140.4-7.8 13.5-7 12.9-13.9 9.9-16-7.1-34.3-9.1-50.8-5.7-30.7 6.4-55.2 29.3-64 59.8-1.9 6.6-2.3 10.3-2.3 21.9.1 16 1.3 21.9 7.7 35.6l3.9 8.6-5.2 6.9c-13.9 18.3-18.1 40.2-12 61.9 1.1 3.8 1.9 7 1.8 7.1-.4.4-47.6-43.6-63.5-59.1l-17.3-17 3-5.5c14.1-26 12.2-60.6-5-85.6l-2.8-4.1 20.2-17.4C309.9 486.4 373 429 426 377.9l26.5-25.6 5 4.6c2.8 2.6 7.9 6.7 11.5 9.1zm135.5 12c48.7 47.2 107.4 100.5 175.8 159.8 14.1 12.3 25.7 22.6 25.7 22.8 0 .3-1.1 2-2.4 3.7-3.9 5.2-9.4 17.1-11.8 25.4-1.9 6.5-2.3 10.2-2.3 21.8.1 16.1 1.3 21.9 7.7 35.7l4 8.7-15.3 14.8c-26.3 25.5-64.1 60.4-64.7 59.8-.2-.2.4-2.7 1.3-5.7 2.6-8.3 3.1-25.9 1.1-35.2-2.1-9.4-7.2-19.7-13.7-27.8-2.7-3.4-4.8-6.4-4.6-6.7 2.5-4.4 7.9-16.8 9.1-21.1 2.5-8.7 3.5-21.5 2.5-31-5-48.9-51.4-83.1-99.1-73.2-5.4 1.1-13 3.5-16.8 5.3-4.2 1.9-7.4 2.9-7.9 2.3-1.9-1.9-12.7-21.5-20.1-36.4-20.3-40.6-31.2-77.2-33.8-113.6l-.7-10.2 7.8-3.2c9.3-3.8 20.5-11.1 26.7-17.4l4.4-4.6 4.6 4.3c2.5 2.3 12.6 12.1 22.5 21.7zm-78.6 9.2c.6 26.4 9 60.1 23.3 94.3 6 14.3 19.5 41.3 27.3 54.4 3 5.1 5.5 9.7 5.5 10.1 0 .5-1.4 1.9-3.1 3.1-4.8 3.4-14.6 16.3-19 25-6.6 13.3-8.4 21.2-8.3 37.4 0 16.1 1.3 22.1 7.6 35.7l4.1 8.8-4.1 4.4c-9.9 10.7-20.9 28.2-28.6 45.3-5.2 11.8-11.7 30.1-13.6 38.6-.7 3.1-1.5 5.6-1.7 5.4-.1-.2-1.6-5-3.3-10.8-8.3-29.1-23-57.7-39.4-76.9-3.1-3.6-5.4-6.7-5.3-7 3.3-5.8 8.2-17.9 9.8-24.3 2.9-11.2 2.8-28.1-.1-39.2-3.9-15.3-12.5-30-23.4-40.3l-5.6-5.3 6.1-10.2c3.3-5.6 9.3-16.7 13.3-24.7 22.4-44 34.5-83.7 37.2-121.3l.7-9.7h20.4l.2 7.2zM178.1 535.9c25.3 6.5 45.3 25.2 54.2 50.9 4.2 12.2 4.9 29.4 1.8 42.7-8.4 35.2-39.2 59.5-75.1 59.6-15.9 0-24.2-2.1-38.3-9.3-18.3-9.5-32.4-27.9-38.8-50.8-2-7-1.7-29.1.5-37 8.4-30.7 33.3-53.1 64.1-58 8.4-1.3 22.6-.4 31.6 1.9zm238.2 0c26.1 6.7 48 28.4 55.3 54.6 2.5 9.3 3 27.7.9 37.2-6.5 29.6-28.1 51.9-57.5 59.4-8.3 2.2-24.9 2.7-33.5 1-29.3-5.6-53.4-28.3-61.1-57.6-2.5-9.6-2.5-29.4 0-38.5 8.4-30.6 33.4-53.2 64-57.9 8.5-1.4 22.7-.5 31.9 1.8zm237.8 0c25.3 6.5 45.3 25.2 54.2 50.9 2.5 7.4 3.1 10.6 3.5 21.2.6 18.7-3.2 32.8-12.7 46.9-11.6 17.1-29.9 29.2-49.9 33.1-9.3 1.9-30 .8-38.2-2-34.8-11.7-56.9-43.7-54.6-79 .7-11.3 2.6-18.9 7.2-29 10.7-23 33.3-39.9 58.9-44 8.4-1.3 22.6-.4 31.6 1.9zm238.2 0c15 3.9 30.1 13.5 40.1 25.7 6.5 7.9 10.6 15.3 14.2 25.9 3.9 11.5 4.5 29.2 1.5 42-6.8 28.1-28.6 50.3-56.7 57.5-8.7 2.3-25.2 2.8-33.9 1.1-29.2-5.6-52.5-27.4-61.1-57.1-2.5-8.9-2.6-29.8 0-39 8.3-30.5 33.4-53.2 64-57.9 8.5-1.4 22.7-.5 31.9 1.8zM102.7 673c7.1 6.7 18.4 13.7 26.4 16.4l5.4 1.9.3 8.1c1.3 40.2 23.4 81.9 59 111.4 3.5 2.9 6.1 5.2 5.9 5.2-.8 0-26.5-11.9-36.3-16.8-55.8-28-86-57.4-88.1-85.6-.8-11.7 2.8-23.6 10.9-35.4 3.4-4.9 8.7-11.2 9.5-11.2.3 0 3.4 2.7 7 6zm143.4 17.6c27.7 26.2 44 41.2 65.3 59.9 8.9 7.9 16.6 15.6 19.4 19.5 21.6 30.3 70.3 73.9 115.4 103.5l10.6 7 .1 5.1.1 5.2-3.7-.8c-2.1-.5-14.1-3.2-26.8-6-32.3-7.2-39.6-9.1-59.7-15.9-88.1-29.9-145.2-69.2-170.2-117.1-8.5-16.3-12.8-31.3-14.4-50.7l-.8-9.1 4.1-1.2c9.6-2.9 24.7-12.3 32-19.9 1.6-1.7 3.2-3 3.6-2.9.4.2 11.6 10.7 25 23.4zm92.9-19c6.1 6.2 16.9 13.2 26 16.9l7.5 3.1.3 7.4c1.5 38.3 18.7 80.9 49.9 123.7l8.5 11.7-4.8-3.9c-17.9-14.4-48.2-39.7-67.4-56.1-24.2-20.7-26-22.8-33.6-39.9-8.2-18.6-8.6-39.4-1-54.3 2.8-5.6 8.3-13.2 9.4-13.2.4 0 2.8 2.1 5.2 4.6zm126.1 2.4c19.6 24.3 32.9 56.6 41 99 2.1 10.9 2.1 12.2.9 26-.7 8-1.6 21-1.9 29l-.6 14.5-17.4.3c-14.1.2-17.2 0-16.3-1 .8-1 0-3.1-3.2-8.3-19.5-32-33.8-64.4-41.1-93-3.8-15.1-5.3-23.9-6.3-38.7l-.7-10.6 4-1.2c9.6-2.9 24.7-12.3 32-19.9 1.6-1.7 3.2-3 3.6-2.9.4.2 3.1 3.2 6 6.8zm113.5-1.1c7.2 6.8 17.1 13 25.9 16.2 3.3 1.3 6.1 2.3 6.3 2.4.1.1-.3 6-.8 13.1-3.1 38.5-18.4 80.8-45.3 125.6-3.6 6-6.1 10.8-5.6 10.8s.9.4.9 1-6.3 1-17 1h-17v-3.3c0-6.2-2-35.3-3-44.2-1-8.1-.8-10.4 1.4-22.5 6.6-35.8 17.4-64.9 32.2-87.1 5.5-8.2 14-18.9 15.1-18.9.3 0 3.4 2.7 6.9 5.9zm127.5 7.6c3.2 6.5 5.9 17.5 5.9 24.2 0 11.4-5.5 29-13.5 42.6-4 6.8-6.4 9.3-21.3 22-32.1 27.4-75.8 63.7-76.7 63.7-.2 0 1.9-3 4.6-6.7 22.7-30 39.9-63.7 47.4-93 2.9-11.4 5.8-31.9 5.3-38-.3-4.1-.2-4.2 3.7-5.3 9.6-2.9 24.8-12.3 32-20l3-3.2 3.3 3.8c1.8 2.1 4.6 6.6 6.3 9.9zm110.6-7.5c7.2 6.8 18.4 13.7 26.7 16.5l5.6 1.9-.6 7.6c-2.6 33.9-15.3 61.4-40.3 87.3-31.2 32.4-77.5 58.9-140.5 80.6-21.7 7.5-32.5 10.4-65.1 17.6-13.7 3-26 5.7-27.2 6-2.2.5-2.3.3-2.3-5.5 0-3.9.4-5.9 1-5.5 1.7 1 37.2-24.4 60-42.9 27-22 53.5-49.1 66.9-68.4 1.3-1.8 10.4-10.5 20.4-19.4 27-24 51-46.2 70.1-65 9.4-9.2 17.5-16.7 18-16.8.5 0 3.7 2.7 7.3 6zm123.7-.3c13.9 17.4 18.2 36.1 12.3 53-9.4 27.1-43.8 54.7-101.4 81.2-21.7 10-21.9 10.1-14.8 4 28.7-24.8 47.1-52.9 54.8-83.6 2.8-10.9 5.2-28.7 4.5-33.2-.4-2.6-.1-3 3.6-4.1 9.7-2.9 24.8-12.3 32-19.9 1.7-1.7 3.3-3.1 3.7-3.1.4 0 2.8 2.6 5.3 5.7zm-771.5 28.8c1.3 32.9 18.6 69 46.5 96.9 15 15 36.1 30.9 54.9 41.6 3.1 1.7 5.7 3.3 5.7 3.5 0 1-15.1-5-21.8-8.6-41.5-22.6-68.3-45.4-86.4-73.5-10.4-16.2-17.9-38.7-19.4-58.8l-.7-8.1h20.9l.3 7zm238.4 4c1.9 35.2 18.8 83.7 43.6 125.5 7.1 11.9 6.9 11.5 5.6 11.6-.5 0-4.4-4.1-8.6-9.1-36.8-44.5-58.3-90.2-61.5-130.5l-.6-8.5h20.9l.6 11zm236.5-1.8c-3.3 40.3-24.3 84.9-61.5 130.1-4.8 5.8-8.9 10-9.1 9.4-.2-.6 2.4-5.7 5.8-11.4 8-13.3 21.6-41.1 27.3-55.8 9-22.9 14.8-46.7 16.8-69.4l1.2-12.1h20.2l-.7 9.2zm238.6-3.2c-4.4 48.9-29.6 86.3-81 119.9-16.2 10.5-45.3 25-47.1 23.3-.1-.2 4.8-3.4 11-7.1 21.2-12.6 43.6-30.7 57.3-46.4 23.5-26.9 36.1-55.5 38.9-88.2l.7-7.5H882.9l-.5 6zM568 849.3c0 .7-.5 1.8-1.2 2.5-.8.8-.8 1.5 0 2.4.8 1 1.1 19.6 1.2 63.1V979l-52.5-.2-52.5-.3v-61.4c0-42.4.3-61.8 1.1-62.7.7-.9.6-2-.6-3.8l-1.7-2.6h53.1c42.9 0 53.1.2 53.1 1.3z"/><path d="M501.1 254c-13.3 3.2-18.5 22.6-8.8 32.7 4.9 5.2 11.7 5.3 16.7.3l2.1-2.1-.3 8.8c-.3 8.3-.4 8.8-2.5 9.1-1.3.2-2.3 1-2.3 1.8 0 1.1 1.9 1.4 9.1 1.4 6.8 0 9-.3 8.7-1.3-.3-.6-1.4-1.3-2.6-1.5-2.1-.3-2.2-.6-2.4-25-.3-24.1-.4-24.7-2.3-24.4-3.4.6-5.9.6-9 0-1.6-.3-4.5-.3-6.4.2zm6.2 4.1c3.4 1.8 3.7 2.8 3.7 12.8 0 10.6-1.2 13.1-6.2 13.1-7 0-10.2-5-9.6-14.8.4-5.8.8-6.8 3.6-9.3 3.5-3.2 5.2-3.5 8.5-1.8zM530.8 285.6c-3.1 1.6-3.7 3.6-1 3.2 1.5-.3 1.7.9 2 10.8.3 10.7.2 11.2-1.9 11.7-3.7 1-1.3 2.2 4.2 2.1 3.1 0 5.4-.5 5.7-1.2.2-.7-.3-1.2-1.2-1.2-1.4 0-1.6-1.9-1.6-13.5 0-14.9-.2-15.2-6.2-11.9zM140.2 570.1c-6 3-9.5 8.5-10 15.9s1 12.1 5.4 16c4.4 3.9 9.6 4.1 14.8.5l3.6-2.4v7.7c0 8.1-.9 10.2-4.3 10.2-1 0-1.7.5-1.4 1.2.2.9 3 1.3 9.2 1.3 6.2 0 9-.4 9.3-1.3.2-.7-.5-1.2-1.5-1.2-4.1 0-4.3-1.4-4.3-26.3v-23.9l-2.2.7c-2.5.8-3.1.8-9.8 0-3.4-.5-5.5-.1-8.8 1.6zm11.7 4.5c1.8 2.3 2.1 4.1 2.1 12v9.3l-3.1 1.6c-8.6 4.5-16.1-5.5-13-17.3 2.1-7.7 9.9-10.8 14-5.6z"/><path d="M173.9 599.5c-8.1 4.4-7.8 24.2.4 28.3 7.2 3.5 14-6.6 12.3-18.3-.6-3.6-1.6-5.7-4.1-8.2-3.7-3.7-4.8-3.9-8.6-1.8zm6.2 3.6c1.4 2.7 1.4 18.2-.1 20.9-1.4 2.7-4.1 2.2-5.8-1-1.7-3.3-1.2-18.1.7-20.3 1.8-2.3 3.8-2.1 5.2.4zM379.5 569.4c-9.6 4.3-14.1 17.2-9.6 27.2 3.9 8.5 12.6 11.2 19.1 5.8l3.1-2.6-.3 8.8c-.3 8.3-.4 8.8-2.6 9.4-5.3 1.2-2.3 2.5 6.6 2.8 7.7.2 9.2 0 9.2-1.3 0-.8-.9-1.5-2-1.5-3.5 0-4-3.1-4-26.9 0-23.6-.3-25.4-3.8-21.9-.9.9-1.8.9-3.7 0-3.4-1.6-8.2-1.5-12 .2zM390 574c1.7 1.7 2 3.3 2 11.9 0 9.2-.2 10.1-2.2 11.5-2.8 2-5.1 2-8.7.2-3.6-1.9-5.1-5.5-5.1-12.2 0-5.8 1.9-10.6 4.7-12.3 2.9-1.7 7.2-1.2 9.3.9z"/><path d="M412.1 599.3c-8.6 4.3-8.9 22.9-.5 28.3 2.3 1.6 2.8 1.6 5.9.1 4.6-2.2 6.6-6.5 6.7-14.1 0-10.9-5.6-17.6-12.1-14.3zm5.3 3.9c1.1 1.6 1.6 4.6 1.6 10.3 0 8.3-1.5 12.5-4.6 12.5-2.2 0-3.4-4.4-3.4-12.8 0-7.5 1.6-12.2 4-12.2.5 0 1.6 1 2.4 2.2zM616.2 570.1c-6 3-9.5 8.5-10 15.9s1 12.1 5.4 16c4.4 3.9 9.6 4.1 14.8.5l3.6-2.4v7.7c0 8.1-.9 10.2-4.3 10.2-1 0-1.7.5-1.4 1.2.2.9 3 1.3 9.2 1.3 6.2 0 9-.4 9.3-1.3.2-.7-.5-1.2-1.5-1.2-4.1 0-4.3-1.4-4.3-26.3v-23.9l-2.2.7c-2.5.8-3.1.8-9.8 0-3.4-.5-5.5-.1-8.8 1.6zm11.7 4.5c1.8 2.3 2.1 4.1 2.1 12v9.3l-3.1 1.6c-8.6 4.5-16.1-5.5-13-17.3 2.1-7.7 9.9-10.8 14-5.6zM649.9 599.5c-3.7 2-5.9 7.3-5.9 13.9 0 9.5 3.3 14.9 9.1 14.9 9.6 0 13.4-19 5.4-27-3.7-3.7-4.8-3.9-8.6-1.8zm6.1 3.6c1.5 2.6 1.5 16.5.1 20.2-1.3 3.4-4 3.3-5.9-.3-1.7-3.3-1.2-18.1.7-20.3 1.8-2.3 3.8-2.1 5.1.4zM855.5 569.4c-9.6 4.3-14.1 17.2-9.6 27.2 3.9 8.5 12.6 11.2 19.1 5.8l3.1-2.6-.3 8.8c-.3 8.3-.4 8.8-2.6 9.4-5.3 1.2-2.3 2.5 6.6 2.8 7.7.2 9.2 0 9.2-1.3 0-.8-.9-1.5-2-1.5-3.5 0-4-3.1-4-26.9 0-23.6-.3-25.4-3.8-21.9-.9.9-1.8.9-3.7 0-3.4-1.6-8.2-1.5-12 .2zM866 574c1.7 1.7 2 3.3 2 11.9 0 9.2-.2 10.1-2.2 11.5-2.8 2-5.1 2-8.7.2-3.6-1.9-5.1-5.5-5.1-12.2 0-5.8 1.9-10.6 4.7-12.3 2.9-1.7 7.2-1.2 9.3.9z"/><path d="M888.1 599.3c-8.6 4.3-8.9 22.9-.5 28.3 2.4 1.6 2.8 1.6 6 0 4.4-2 6.6-7 6.6-14.7 0-10.3-5.8-16.8-12.1-13.6zm5.3 3.9c2 2.8 2.2 16.1.3 19.8-1.8 3.5-4.5 3.7-5.7.5-1.6-4.3-1.3-17.7.6-20.3.8-1.2 1.9-2.2 2.4-2.2s1.6 1 2.4 2.2zM509.3 884.3c-7.2 3.6-8.1 5.5-2.5 5.3l3.7-.1v46l-3.2.3c-2.1.2-3.3.9-3.3 1.8 0 1.1 2.1 1.4 11.1 1.4 8.4 0 11-.3 10.7-1.3-.3-.6-1.8-1.4-3.4-1.7l-2.9-.5-.3-27.3c-.3-31.2.5-29.2-9.9-23.9z"/></svg>
