<?xml version="1.0" encoding="UTF-8" standalone="no"?>
<!DOCTYPE svg PUBLIC "-//W3C//DTD SVG 1.1//EN"
 "http://www.w3.org/Graphics/SVG/1.1/DTD/svg11.dtd">
<!-- Generated by graphviz version 2.40.1 (20161225.0304)
 -->
<!-- Title: DD Pages: 1 -->
<svg width="89pt" height="332pt"
 viewBox="0.00 0.00 89.28 331.79" xmlns="http://www.w3.org/2000/svg" xmlns:xlink="http://www.w3.org/1999/xlink">
<g id="graph0" class="graph" transform="scale(1 1) rotate(0) translate(4 327.7931)">
<title>DD</title>
<polygon fill="#ffffff" stroke="transparent" points="-4,4 -4,-327.7931 85.2811,-327.7931 85.2811,4 -4,4"/>
<!-- T -->
<g id="node1" class="node">
<title>T</title>
<polygon fill="none" stroke="#000000" points="67.2811,-36 13.2811,-36 13.2811,0 67.2811,0 67.2811,-36"/>
<text text-anchor="middle" x="40.2811" y="-14.3" font-family="Times,serif" font-size="14.00" fill="#000000">1</text>
</g>
<!-- R -->
<g id="node2" class="node">
<title>R</title>
<ellipse fill="#000000" stroke="#000000" cx="33.2811" cy="-321.9931" rx="1.8" ry="1.8"/>
</g>
<!-- 0 -->
<g id="node3" class="node">
<title>0</title>
<ellipse fill="#d3d3d3" stroke="#000000" cx="33.2811" cy="-263.6948" rx="19.4965" ry="19.4965"/>
<text text-anchor="middle" x="33.2811" y="-259.9948" font-family="Times,serif" font-size="14.00" fill="#000000">q1</text>
</g>
<!-- R&#45;&gt;0 -->
<g id="edge1" class="edge">
<title>R&#45;&gt;0</title>
<path fill="none" stroke="#000000" d="M33.2811,-320.0534C33.2811,-315.6969 33.2811,-304.6399 33.2811,-293.4617"/>
<polygon fill="#000000" stroke="#000000" points="36.7812,-293.3506 33.2811,-283.3507 29.7812,-293.3507 36.7812,-293.3506"/>
</g>
<!-- 0h0 -->
<g id="node4" class="node">
<title>0h0</title>
<ellipse fill="#000000" stroke="#000000" cx="7.2811" cy="-205.3965" rx="1.8" ry="1.8"/>
</g>
<!-- 0&#45;&gt;0h0 -->
<g id="edge2" class="edge">
<title>0&#45;&gt;0h0</title>
<path fill="none" stroke="#006400" d="M25.339,-245.8866C19.007,-231.6889 10.7784,-213.2384 8.1369,-207.3155"/>
</g>
<!-- 0h2 -->
<g id="node5" class="node">
<title>0h2</title>
<ellipse fill="#000000" stroke="#000000" cx="52.2811" cy="-205.3965" rx="1.8" ry="1.8"/>
</g>
<!-- 0&#45;&gt;0h2 -->
<g id="edge4" class="edge">
<title>0&#45;&gt;0h2</title>
<path fill="none" stroke="#ff0000" d="M39.3974,-244.928C43.9971,-230.8147 49.8141,-212.9662 51.6778,-207.2477"/>
</g>
<!-- 1 -->
<g id="node6" class="node">
<title>1</title>
<ellipse fill="#d3d3d3" stroke="#000000" cx="27.2811" cy="-133.0983" rx="19.4965" ry="19.4965"/>
<text text-anchor="middle" x="27.2811" y="-129.3983" font-family="Times,serif" font-size="14.00" fill="#000000">q0</text>
</g>
<!-- 0h0&#45;&gt;1 -->
<g id="edge3" class="edge">
<title>0h0&#45;&gt;1</title>
<path fill="none" stroke="#000000" d="M6.4665,-203.7652C4.0622,-198.7262 -2.5987,-183.0013 1.2811,-170.5965 2.8662,-165.5285 5.4038,-160.5436 8.2864,-155.9457"/>
<polygon fill="#000000" stroke="#000000" points="11.2201,-157.8582 14.0952,-147.6609 5.4885,-153.8396 11.2201,-157.8582"/>
<text text-anchor="middle" x="16.7811" y="-174.3965" font-family="Times,serif" font-size="14.00" fill="#000000"> (√½)</text>
</g>
<!-- 0h2&#45;&gt;1 -->
<g id="edge5" class="edge">
<title>0h2&#45;&gt;1</title>
<path fill="none" stroke="#000000" d="M51.6631,-203.6094C49.6266,-197.7199 42.9218,-178.3301 37.0576,-161.3712"/>
<polygon fill="#000000" stroke="#000000" points="40.3195,-160.0945 33.7436,-151.7874 33.7039,-162.3821 40.3195,-160.0945"/>
<text text-anchor="middle" x="63.2811" y="-174.3965" font-family="Times,serif" font-size="14.00" fill="#000000"> (&#45;√½)</text>
</g>
<!-- 1h0 -->
<g id="node7" class="node">
<title>1h0</title>
<ellipse fill="#ff0000" stroke="#ff0000" cx="15.2811" cy="-74.8" rx="1.8" ry="1.8"/>
</g>
<!-- 1&#45;&gt;1h0 -->
<g id="edge6" class="edge">
<title>1&#45;&gt;1h0</title>
<path fill="none" stroke="#006400" d="M23.2853,-113.6858C20.3945,-99.6416 16.8024,-82.1906 15.653,-76.6067"/>
</g>
<!-- 1h2 -->
<g id="node8" class="node">
<title>1h2</title>
<ellipse fill="#000000" stroke="#000000" cx="40.2811" cy="-74.8" rx="1.8" ry="1.8"/>
</g>
<!-- 1&#45;&gt;1h2 -->
<g id="edge7" class="edge">
<title>1&#45;&gt;1h2</title>
<path fill="none" stroke="#ff0000" d="M31.5378,-114.0092C34.6775,-99.9293 38.6132,-82.2799 39.8733,-76.6289"/>
</g>
<!-- 1h2&#45;&gt;T -->
<g id="edge8" class="edge">
<title>1h2&#45;&gt;T</title>
<path fill="none" stroke="#000000" d="M40.2811,-72.9102C40.2811,-68.5478 40.2811,-57.2893 40.2811,-46.0942"/>
<polygon fill="#000000" stroke="#000000" points="43.7812,-46.0304 40.2811,-36.0304 36.7812,-46.0304 43.7812,-46.0304"/>
</g>
</g>
</svg>
