<?xml version="1.0" encoding="UTF-8" standalone="no"?>
<!DOCTYPE svg PUBLIC "-//W3C//DTD SVG 1.1//EN"
 "http://www.w3.org/Graphics/SVG/1.1/DTD/svg11.dtd">
<!-- Generated by graphviz version 2.40.1 (20161225.0304)
 -->
<!-- Title: DD Pages: 1 -->
<svg width="95pt" height="346pt"
 viewBox="0.00 0.00 95.00 345.79" xmlns="http://www.w3.org/2000/svg" xmlns:xlink="http://www.w3.org/1999/xlink">
<g id="graph0" class="graph" transform="scale(1 1) rotate(0) translate(4 341.7931)">
<title>DD</title>
<polygon fill="#ffffff" stroke="transparent" points="-4,4 -4,-341.7931 91,-341.7931 91,4 -4,4"/>
<!-- T -->
<g id="node1" class="node">
<title>T</title>
<polygon fill="none" stroke="#000000" points="54,-36 0,-36 0,0 54,0 54,-36"/>
<text text-anchor="middle" x="27" y="-14.3" font-family="Times,serif" font-size="14.00" fill="#000000">1</text>
</g>
<!-- R -->
<g id="node2" class="node">
<title>R</title>
<ellipse fill="#000000" stroke="#000000" cx="39" cy="-335.9931" rx="1.8" ry="1.8"/>
</g>
<!-- 0 -->
<g id="node3" class="node">
<title>0</title>
<ellipse fill="#d3d3d3" stroke="#000000" cx="39" cy="-277.6948" rx="19.4965" ry="19.4965"/>
<text text-anchor="middle" x="39" y="-273.9948" font-family="Times,serif" font-size="14.00" fill="#000000">q1</text>
</g>
<!-- R&#45;&gt;0 -->
<g id="edge1" class="edge">
<title>R&#45;&gt;0</title>
<path fill="none" stroke="#000000" d="M39,-334.0534C39,-329.6969 39,-318.6399 39,-307.4617"/>
<polygon fill="#000000" stroke="#000000" points="42.5001,-307.3506 39,-297.3507 35.5001,-307.3507 42.5001,-307.3506"/>
</g>
<!-- 0h0 -->
<g id="node4" class="node">
<title>0h0</title>
<ellipse fill="#000000" stroke="#000000" cx="13" cy="-219.3965" rx="1.8" ry="1.8"/>
</g>
<!-- 0&#45;&gt;0h0 -->
<g id="edge2" class="edge">
<title>0&#45;&gt;0h0</title>
<path fill="none" stroke="#006400" d="M31.0579,-259.8866C24.7259,-245.6889 16.4973,-227.2384 13.8558,-221.3155"/>
</g>
<!-- 0h2 -->
<g id="node5" class="node">
<title>0h2</title>
<ellipse fill="#000000" stroke="#000000" cx="58" cy="-219.3965" rx="1.8" ry="1.8"/>
</g>
<!-- 0&#45;&gt;0h2 -->
<g id="edge4" class="edge">
<title>0&#45;&gt;0h2</title>
<path fill="none" stroke="#ff0000" d="M45.1163,-258.928C49.716,-244.8147 55.533,-226.9662 57.3967,-221.2477"/>
</g>
<!-- 1 -->
<g id="node6" class="node">
<title>1</title>
<ellipse fill="#d3d3d3" stroke="#000000" cx="33" cy="-147.0983" rx="19.4965" ry="19.4965"/>
<text text-anchor="middle" x="33" y="-143.3983" font-family="Times,serif" font-size="14.00" fill="#000000">q0</text>
</g>
<!-- 0h0&#45;&gt;1 -->
<g id="edge3" class="edge">
<title>0h0&#45;&gt;1</title>
<path fill="none" stroke="#000000" d="M12.1853,-217.7652C9.7811,-212.7262 3.1202,-197.0013 7,-184.5965 8.5851,-179.5285 11.1227,-174.5436 14.0053,-169.9457"/>
<polygon fill="#000000" stroke="#000000" points="16.939,-171.8582 19.8141,-161.6609 11.2074,-167.8396 16.939,-171.8582"/>
<text text-anchor="middle" x="22.5" y="-188.3965" font-family="Times,serif" font-size="14.00" fill="#000000"> (√½)</text>
</g>
<!-- 0h2&#45;&gt;1 -->
<g id="edge5" class="edge">
<title>0h2&#45;&gt;1</title>
<path fill="none" stroke="#000000" d="M57.382,-217.6094C55.3455,-211.7199 48.6407,-192.3301 42.7765,-175.3712"/>
<polygon fill="#000000" stroke="#000000" points="46.0384,-174.0945 39.4625,-165.7874 39.4228,-176.3821 46.0384,-174.0945"/>
<text text-anchor="middle" x="69" y="-188.3965" font-family="Times,serif" font-size="14.00" fill="#000000"> (&#45;√½)</text>
</g>
<!-- 1h0 -->
<g id="node7" class="node">
<title>1h0</title>
<ellipse fill="#000000" stroke="#000000" cx="8" cy="-88.8" rx="1.8" ry="1.8"/>
</g>
<!-- 1&#45;&gt;1h0 -->
<g id="edge6" class="edge">
<title>1&#45;&gt;1h0</title>
<path fill="none" stroke="#006400" d="M25.2269,-128.9719C19.1494,-114.7997 11.3237,-96.5507 8.8132,-90.6962"/>
</g>
<!-- 1h2 -->
<g id="node8" class="node">
<title>1h2</title>
<ellipse fill="#000000" stroke="#000000" cx="51" cy="-88.8" rx="1.8" ry="1.8"/>
</g>
<!-- 1&#45;&gt;1h2 -->
<g id="edge8" class="edge">
<title>1&#45;&gt;1h2</title>
<path fill="none" stroke="#ff0000" d="M38.7944,-128.3314C43.152,-114.2182 48.6628,-96.3697 50.4284,-90.6512"/>
</g>
<!-- 1h0&#45;&gt;T -->
<g id="edge7" class="edge">
<title>1h0&#45;&gt;T</title>
<path fill="none" stroke="#000000" d="M7.1506,-86.87C4.9212,-81.53 -.679,-66.151 3,-54 3.9067,-51.0052 5.1539,-48.0319 6.6066,-45.1523"/>
<polygon fill="#000000" stroke="#000000" points="9.7244,-46.7551 11.7822,-36.362 3.6924,-43.2034 9.7244,-46.7551"/>
<text text-anchor="middle" x="17" y="-57.8" font-family="Times,serif" font-size="14.00" fill="#000000">(√½)</text>
</g>
<!-- 1h2&#45;&gt;T -->
<g id="edge9" class="edge">
<title>1h2&#45;&gt;T</title>
<path fill="none" stroke="#000000" d="M50.4067,-87.0499C48.47,-81.3364 42.135,-62.6483 36.5435,-46.1533"/>
<polygon fill="#000000" stroke="#000000" points="39.7292,-44.6488 33.204,-36.3018 33.0997,-46.8961 39.7292,-44.6488"/>
<text text-anchor="middle" x="60" y="-57.8" font-family="Times,serif" font-size="14.00" fill="#000000">(&#45;√½)</text>
</g>
</g>
</svg>
