<?xml version="1.0" encoding="UTF-8" standalone="no"?>
<!DOCTYPE svg PUBLIC "-//W3C//DTD SVG 1.1//EN"
 "http://www.w3.org/Graphics/SVG/1.1/DTD/svg11.dtd">
<!-- Generated by graphviz version 2.40.1 (20161225.0304)
 -->
<!-- Title: DD Pages: 1 -->
<svg width="108pt" height="682pt"
 viewBox="0.00 0.00 108.50 681.58" xmlns="http://www.w3.org/2000/svg" xmlns:xlink="http://www.w3.org/1999/xlink">
<g id="graph0" class="graph" transform="scale(1 1) rotate(0) translate(4 677.5827)">
<title>DD</title>
<polygon fill="#ffffff" stroke="transparent" points="-4,4 -4,-677.5827 104.4983,-677.5827 104.4983,4 -4,4"/>
<!-- T -->
<g id="node1" class="node">
<title>T</title>
<polygon fill="none" stroke="#000000" points="54,-36 0,-36 0,0 54,0 54,-36"/>
<text text-anchor="middle" x="27" y="-14.3" font-family="Times,serif" font-size="14.00" fill="#000000">1</text>
</g>
<!-- R -->
<g id="node2" class="node">
<title>R</title>
<ellipse fill="#000000" stroke="#000000" cx="81" cy="-671.7827" rx="1.8" ry="1.8"/>
</g>
<!-- 0 -->
<g id="node3" class="node">
<title>0</title>
<ellipse fill="#d3d3d3" stroke="#000000" cx="81" cy="-613.4844" rx="19.4965" ry="19.4965"/>
<text text-anchor="middle" x="81" y="-609.7844" font-family="Times,serif" font-size="14.00" fill="#000000">q4</text>
</g>
<!-- R&#45;&gt;0 -->
<g id="edge1" class="edge">
<title>R&#45;&gt;0</title>
<path fill="none" stroke="#000000" d="M81,-669.843C81,-665.4866 81,-654.4295 81,-643.2513"/>
<polygon fill="#000000" stroke="#000000" points="84.5001,-643.1403 81,-633.1403 77.5001,-643.1403 84.5001,-643.1403"/>
</g>
<!-- 0h0 -->
<g id="node4" class="node">
<title>0h0</title>
<ellipse fill="#000000" stroke="#000000" cx="69" cy="-555.1862" rx="1.8" ry="1.8"/>
</g>
<!-- 0&#45;&gt;0h0 -->
<g id="edge2" class="edge">
<title>0&#45;&gt;0h0</title>
<path fill="none" stroke="#006400" d="M77.0042,-594.0719C74.1133,-580.0278 70.5213,-562.5767 69.3719,-556.9928"/>
</g>
<!-- 0h2 -->
<g id="node5" class="node">
<title>0h2</title>
<ellipse fill="#ff0000" stroke="#ff0000" cx="94" cy="-555.1862" rx="1.8" ry="1.8"/>
</g>
<!-- 0&#45;&gt;0h2 -->
<g id="edge4" class="edge">
<title>0&#45;&gt;0h2</title>
<path fill="none" stroke="#ff0000" d="M85.2567,-594.3954C88.3964,-580.3154 92.332,-562.6661 93.5922,-557.015"/>
</g>
<!-- 1 -->
<g id="node6" class="node">
<title>1</title>
<ellipse fill="#d3d3d3" stroke="#000000" cx="69" cy="-496.8879" rx="19.4965" ry="19.4965"/>
<text text-anchor="middle" x="69" y="-493.1879" font-family="Times,serif" font-size="14.00" fill="#000000">q3</text>
</g>
<!-- 0h0&#45;&gt;1 -->
<g id="edge3" class="edge">
<title>0h0&#45;&gt;1</title>
<path fill="none" stroke="#000000" d="M69,-553.2465C69,-548.89 69,-537.833 69,-526.6548"/>
<polygon fill="#000000" stroke="#000000" points="72.5001,-526.5437 69,-516.5437 65.5001,-526.5438 72.5001,-526.5437"/>
</g>
<!-- 1h0 -->
<g id="node7" class="node">
<title>1h0</title>
<ellipse fill="#000000" stroke="#000000" cx="57" cy="-438.5896" rx="1.8" ry="1.8"/>
</g>
<!-- 1&#45;&gt;1h0 -->
<g id="edge5" class="edge">
<title>1&#45;&gt;1h0</title>
<path fill="none" stroke="#006400" d="M65.0042,-477.4754C62.1133,-463.4312 58.5213,-445.9802 57.3719,-440.3963"/>
</g>
<!-- 1h2 -->
<g id="node8" class="node">
<title>1h2</title>
<ellipse fill="#ff0000" stroke="#ff0000" cx="82" cy="-438.5896" rx="1.8" ry="1.8"/>
</g>
<!-- 1&#45;&gt;1h2 -->
<g id="edge7" class="edge">
<title>1&#45;&gt;1h2</title>
<path fill="none" stroke="#ff0000" d="M73.2567,-477.7989C76.3964,-463.7189 80.332,-446.0695 81.5922,-440.4185"/>
</g>
<!-- 2 -->
<g id="node9" class="node">
<title>2</title>
<ellipse fill="#d3d3d3" stroke="#000000" cx="57" cy="-380.2913" rx="19.4965" ry="19.4965"/>
<text text-anchor="middle" x="57" y="-376.5913" font-family="Times,serif" font-size="14.00" fill="#000000">q2</text>
</g>
<!-- 1h0&#45;&gt;2 -->
<g id="edge6" class="edge">
<title>1h0&#45;&gt;2</title>
<path fill="none" stroke="#000000" d="M57,-436.6499C57,-432.2935 57,-421.2365 57,-410.0582"/>
<polygon fill="#000000" stroke="#000000" points="60.5001,-409.9472 57,-399.9472 53.5001,-409.9472 60.5001,-409.9472"/>
</g>
<!-- 2h0 -->
<g id="node10" class="node">
<title>2h0</title>
<ellipse fill="#000000" stroke="#000000" cx="31" cy="-321.9931" rx="1.8" ry="1.8"/>
</g>
<!-- 2&#45;&gt;2h0 -->
<g id="edge8" class="edge">
<title>2&#45;&gt;2h0</title>
<path fill="none" stroke="#006400" d="M49.0579,-362.4832C42.7259,-348.2854 34.4973,-329.835 31.8558,-323.912"/>
</g>
<!-- 2h2 -->
<g id="node11" class="node">
<title>2h2</title>
<ellipse fill="#000000" stroke="#000000" cx="76" cy="-321.9931" rx="1.8" ry="1.8"/>
</g>
<!-- 2&#45;&gt;2h2 -->
<g id="edge10" class="edge">
<title>2&#45;&gt;2h2</title>
<path fill="none" stroke="#ff0000" d="M63.1163,-361.5245C67.716,-347.4112 73.533,-329.5628 75.3967,-323.8443"/>
</g>
<!-- 3 -->
<g id="node12" class="node">
<title>3</title>
<ellipse fill="#d3d3d3" stroke="#000000" cx="51" cy="-249.6948" rx="19.4965" ry="19.4965"/>
<text text-anchor="middle" x="51" y="-245.9948" font-family="Times,serif" font-size="14.00" fill="#000000">q1</text>
</g>
<!-- 2h0&#45;&gt;3 -->
<g id="edge9" class="edge">
<title>2h0&#45;&gt;3</title>
<path fill="none" stroke="#000000" d="M30.1853,-320.3617C27.7811,-315.3227 21.1202,-299.5978 25,-287.1931 26.5851,-282.125 29.1227,-277.1401 32.0053,-272.5423"/>
<polygon fill="#000000" stroke="#000000" points="34.939,-274.4548 37.8141,-264.2575 29.2074,-270.4361 34.939,-274.4548"/>
<text text-anchor="middle" x="40.5" y="-290.9931" font-family="Times,serif" font-size="14.00" fill="#000000"> (√½)</text>
</g>
<!-- 2h2&#45;&gt;3 -->
<g id="edge11" class="edge">
<title>2h2&#45;&gt;3</title>
<path fill="none" stroke="#000000" d="M75.382,-320.2059C73.3455,-314.3165 66.6407,-294.9267 60.7765,-277.9678"/>
<polygon fill="#000000" stroke="#000000" points="64.0384,-276.691 57.4625,-268.3839 57.4228,-278.9787 64.0384,-276.691"/>
<text text-anchor="middle" x="84.5" y="-290.9931" font-family="Times,serif" font-size="14.00" fill="#000000"> (√½)</text>
</g>
<!-- 3h0 -->
<g id="node13" class="node">
<title>3h0</title>
<ellipse fill="#000000" stroke="#000000" cx="39" cy="-191.3965" rx="1.8" ry="1.8"/>
</g>
<!-- 3&#45;&gt;3h0 -->
<g id="edge12" class="edge">
<title>3&#45;&gt;3h0</title>
<path fill="none" stroke="#006400" d="M47.0042,-230.2823C44.1133,-216.2382 40.5213,-198.7871 39.3719,-193.2032"/>
</g>
<!-- 3h2 -->
<g id="node14" class="node">
<title>3h2</title>
<ellipse fill="#ff0000" stroke="#ff0000" cx="64" cy="-191.3965" rx="1.8" ry="1.8"/>
</g>
<!-- 3&#45;&gt;3h2 -->
<g id="edge14" class="edge">
<title>3&#45;&gt;3h2</title>
<path fill="none" stroke="#ff0000" d="M55.2567,-230.6058C58.3964,-216.5258 62.332,-198.8764 63.5922,-193.2254"/>
</g>
<!-- 4 -->
<g id="node15" class="node">
<title>4</title>
<ellipse fill="#d3d3d3" stroke="#000000" cx="39" cy="-133.0983" rx="19.4965" ry="19.4965"/>
<text text-anchor="middle" x="39" y="-129.3983" font-family="Times,serif" font-size="14.00" fill="#000000">q0</text>
</g>
<!-- 3h0&#45;&gt;4 -->
<g id="edge13" class="edge">
<title>3h0&#45;&gt;4</title>
<path fill="none" stroke="#000000" d="M39,-189.4569C39,-185.1004 39,-174.0434 39,-162.8652"/>
<polygon fill="#000000" stroke="#000000" points="42.5001,-162.7541 39,-152.7541 35.5001,-162.7542 42.5001,-162.7541"/>
</g>
<!-- 4h0 -->
<g id="node16" class="node">
<title>4h0</title>
<ellipse fill="#000000" stroke="#000000" cx="27" cy="-74.8" rx="1.8" ry="1.8"/>
</g>
<!-- 4&#45;&gt;4h0 -->
<g id="edge15" class="edge">
<title>4&#45;&gt;4h0</title>
<path fill="none" stroke="#006400" d="M35.0042,-113.6858C32.1133,-99.6416 28.5213,-82.1906 27.3719,-76.6067"/>
</g>
<!-- 4h2 -->
<g id="node17" class="node">
<title>4h2</title>
<ellipse fill="#ff0000" stroke="#ff0000" cx="52" cy="-74.8" rx="1.8" ry="1.8"/>
</g>
<!-- 4&#45;&gt;4h2 -->
<g id="edge17" class="edge">
<title>4&#45;&gt;4h2</title>
<path fill="none" stroke="#ff0000" d="M43.2567,-114.0092C46.3964,-99.9293 50.332,-82.2799 51.5922,-76.6289"/>
</g>
<!-- 4h0&#45;&gt;T -->
<g id="edge16" class="edge">
<title>4h0&#45;&gt;T</title>
<path fill="none" stroke="#000000" d="M27,-72.9102C27,-68.5478 27,-57.2893 27,-46.0942"/>
<polygon fill="#000000" stroke="#000000" points="30.5001,-46.0304 27,-36.0304 23.5001,-46.0304 30.5001,-46.0304"/>
</g>
</g>
</svg>
