<?xml version="1.0" encoding="UTF-8" standalone="no"?>
<!DOCTYPE svg PUBLIC "-//W3C//DTD SVG 1.1//EN"
 "http://www.w3.org/Graphics/SVG/1.1/DTD/svg11.dtd">
<!-- Generated by graphviz version 2.40.1 (20161225.0304)
 -->
<!-- Title: DD Pages: 1 -->
<svg width="87pt" height="657pt"
 viewBox="0.00 0.00 87.50 656.58" xmlns="http://www.w3.org/2000/svg" xmlns:xlink="http://www.w3.org/1999/xlink">
<g id="graph0" class="graph" transform="scale(1 1) rotate(0) translate(4 652.5827)">
<title>DD</title>
<polygon fill="#ffffff" stroke="transparent" points="-4,4 -4,-652.5827 83.4983,-652.5827 83.4983,4 -4,4"/>
<!-- T -->
<g id="node1" class="node">
<title>T</title>
<polygon fill="none" stroke="#000000" points="54,-36 0,-36 0,0 54,0 54,-36"/>
<text text-anchor="middle" x="27" y="-14.3" font-family="Times,serif" font-size="14.00" fill="#000000">1</text>
</g>
<!-- R -->
<g id="node2" class="node">
<title>R</title>
<ellipse fill="#000000" stroke="#000000" cx="60" cy="-646.7827" rx="1.8" ry="1.8"/>
</g>
<!-- 0 -->
<g id="node3" class="node">
<title>0</title>
<ellipse fill="#d3d3d3" stroke="#000000" cx="60" cy="-589.4844" rx="19.4965" ry="19.4965"/>
<text text-anchor="middle" x="60" y="-585.7844" font-family="Times,serif" font-size="14.00" fill="#000000">q4</text>
</g>
<!-- R&#45;&gt;0 -->
<g id="edge1" class="edge">
<title>R&#45;&gt;0</title>
<path fill="none" stroke="#000000" d="M60,-644.8763C60,-640.6677 60,-630.0965 60,-619.3035"/>
<polygon fill="#000000" stroke="#000000" points="63.5001,-619.088 60,-609.088 56.5001,-619.0881 63.5001,-619.088"/>
</g>
<!-- 0h0 -->
<g id="node4" class="node">
<title>0h0</title>
<ellipse fill="#000000" stroke="#000000" cx="49" cy="-532.1862" rx="1.8" ry="1.8"/>
</g>
<!-- 0&#45;&gt;0h0 -->
<g id="edge2" class="edge">
<title>0&#45;&gt;0h0</title>
<path fill="none" stroke="#006400" d="M56.2759,-570.0858C53.6831,-556.5799 50.5004,-540.0014 49.398,-534.2593"/>
</g>
<!-- 0h2 -->
<g id="node5" class="node">
<title>0h2</title>
<ellipse fill="#ff0000" stroke="#ff0000" cx="71" cy="-532.1862" rx="1.8" ry="1.8"/>
</g>
<!-- 0&#45;&gt;0h2 -->
<g id="edge4" class="edge">
<title>0&#45;&gt;0h2</title>
<path fill="none" stroke="#ff0000" d="M63.7241,-570.0858C66.3169,-556.5799 69.4996,-540.0014 70.602,-534.2593"/>
</g>
<!-- 1 -->
<g id="node6" class="node">
<title>1</title>
<ellipse fill="#d3d3d3" stroke="#000000" cx="49" cy="-474.8879" rx="19.4965" ry="19.4965"/>
<text text-anchor="middle" x="49" y="-471.1879" font-family="Times,serif" font-size="14.00" fill="#000000">q3</text>
</g>
<!-- 0h0&#45;&gt;1 -->
<g id="edge3" class="edge">
<title>0h0&#45;&gt;1</title>
<path fill="none" stroke="#000000" d="M49,-530.2797C49,-526.0711 49,-515.4999 49,-504.7069"/>
<polygon fill="#000000" stroke="#000000" points="52.5001,-504.4915 49,-494.4915 45.5001,-504.4915 52.5001,-504.4915"/>
</g>
<!-- 1h0 -->
<g id="node7" class="node">
<title>1h0</title>
<ellipse fill="#000000" stroke="#000000" cx="38" cy="-417.5896" rx="1.8" ry="1.8"/>
</g>
<!-- 1&#45;&gt;1h0 -->
<g id="edge5" class="edge">
<title>1&#45;&gt;1h0</title>
<path fill="none" stroke="#006400" d="M45.2759,-455.4893C42.6831,-441.9834 39.5004,-425.4049 38.398,-419.6627"/>
</g>
<!-- 1h2 -->
<g id="node8" class="node">
<title>1h2</title>
<ellipse fill="#ff0000" stroke="#ff0000" cx="60" cy="-417.5896" rx="1.8" ry="1.8"/>
</g>
<!-- 1&#45;&gt;1h2 -->
<g id="edge7" class="edge">
<title>1&#45;&gt;1h2</title>
<path fill="none" stroke="#ff0000" d="M52.7241,-455.4893C55.3169,-441.9834 58.4996,-425.4049 59.602,-419.6627"/>
</g>
<!-- 2 -->
<g id="node9" class="node">
<title>2</title>
<ellipse fill="#d3d3d3" stroke="#000000" cx="38" cy="-360.2913" rx="19.4965" ry="19.4965"/>
<text text-anchor="middle" x="38" y="-356.5913" font-family="Times,serif" font-size="14.00" fill="#000000">q2</text>
</g>
<!-- 1h0&#45;&gt;2 -->
<g id="edge6" class="edge">
<title>1h0&#45;&gt;2</title>
<path fill="none" stroke="#000000" d="M38,-415.6832C38,-411.4746 38,-400.9034 38,-390.1104"/>
<polygon fill="#000000" stroke="#000000" points="41.5001,-389.8949 38,-379.895 34.5001,-389.895 41.5001,-389.8949"/>
</g>
<!-- 2h0 -->
<g id="node10" class="node">
<title>2h0</title>
<ellipse fill="#ff0000" stroke="#ff0000" cx="27" cy="-302.9931" rx="1.8" ry="1.8"/>
</g>
<!-- 2&#45;&gt;2h0 -->
<g id="edge8" class="edge">
<title>2&#45;&gt;2h0</title>
<path fill="none" stroke="#006400" d="M34.2759,-340.8928C31.6831,-327.3868 28.5004,-310.8083 27.398,-305.0662"/>
</g>
<!-- 2h2 -->
<g id="node11" class="node">
<title>2h2</title>
<ellipse fill="#000000" stroke="#000000" cx="49" cy="-302.9931" rx="1.8" ry="1.8"/>
</g>
<!-- 2&#45;&gt;2h2 -->
<g id="edge9" class="edge">
<title>2&#45;&gt;2h2</title>
<path fill="none" stroke="#ff0000" d="M41.7241,-340.8928C44.3169,-327.3868 47.4996,-310.8083 48.602,-305.0662"/>
</g>
<!-- 3 -->
<g id="node12" class="node">
<title>3</title>
<ellipse fill="#d3d3d3" stroke="#000000" cx="49" cy="-245.6948" rx="19.4965" ry="19.4965"/>
<text text-anchor="middle" x="49" y="-241.9948" font-family="Times,serif" font-size="14.00" fill="#000000">q1</text>
</g>
<!-- 2h2&#45;&gt;3 -->
<g id="edge10" class="edge">
<title>2h2&#45;&gt;3</title>
<path fill="none" stroke="#000000" d="M49,-301.0867C49,-296.8781 49,-286.3068 49,-275.5138"/>
<polygon fill="#000000" stroke="#000000" points="52.5001,-275.2984 49,-265.2984 45.5001,-275.2984 52.5001,-275.2984"/>
</g>
<!-- 3h0 -->
<g id="node13" class="node">
<title>3h0</title>
<ellipse fill="#000000" stroke="#000000" cx="38" cy="-188.3965" rx="1.8" ry="1.8"/>
</g>
<!-- 3&#45;&gt;3h0 -->
<g id="edge11" class="edge">
<title>3&#45;&gt;3h0</title>
<path fill="none" stroke="#006400" d="M45.2759,-226.2962C42.6831,-212.7903 39.5004,-196.2118 38.398,-190.4697"/>
</g>
<!-- 3h2 -->
<g id="node14" class="node">
<title>3h2</title>
<ellipse fill="#ff0000" stroke="#ff0000" cx="60" cy="-188.3965" rx="1.8" ry="1.8"/>
</g>
<!-- 3&#45;&gt;3h2 -->
<g id="edge13" class="edge">
<title>3&#45;&gt;3h2</title>
<path fill="none" stroke="#ff0000" d="M52.7241,-226.2962C55.3169,-212.7903 58.4996,-196.2118 59.602,-190.4697"/>
</g>
<!-- 4 -->
<g id="node15" class="node">
<title>4</title>
<ellipse fill="#d3d3d3" stroke="#000000" cx="38" cy="-131.0983" rx="19.4965" ry="19.4965"/>
<text text-anchor="middle" x="38" y="-127.3983" font-family="Times,serif" font-size="14.00" fill="#000000">q0</text>
</g>
<!-- 3h0&#45;&gt;4 -->
<g id="edge12" class="edge">
<title>3h0&#45;&gt;4</title>
<path fill="none" stroke="#000000" d="M38,-186.4901C38,-182.2815 38,-171.7103 38,-160.9173"/>
<polygon fill="#000000" stroke="#000000" points="41.5001,-160.7018 38,-150.7019 34.5001,-160.7019 41.5001,-160.7018"/>
</g>
<!-- 4h0 -->
<g id="node16" class="node">
<title>4h0</title>
<ellipse fill="#000000" stroke="#000000" cx="27" cy="-73.8" rx="1.8" ry="1.8"/>
</g>
<!-- 4&#45;&gt;4h0 -->
<g id="edge14" class="edge">
<title>4&#45;&gt;4h0</title>
<path fill="none" stroke="#006400" d="M34.2759,-111.6997C31.6831,-98.1938 28.5004,-81.6153 27.398,-75.8731"/>
</g>
<!-- 4h2 -->
<g id="node17" class="node">
<title>4h2</title>
<ellipse fill="#ff0000" stroke="#ff0000" cx="49" cy="-73.8" rx="1.8" ry="1.8"/>
</g>
<!-- 4&#45;&gt;4h2 -->
<g id="edge16" class="edge">
<title>4&#45;&gt;4h2</title>
<path fill="none" stroke="#ff0000" d="M41.7241,-111.6997C44.3169,-98.1938 47.4996,-81.6153 48.602,-75.8731"/>
</g>
<!-- 4h0&#45;&gt;T -->
<g id="edge15" class="edge">
<title>4h0&#45;&gt;T</title>
<path fill="none" stroke="#000000" d="M27,-71.9434C27,-67.7589 27,-57.1154 27,-46.3776"/>
<polygon fill="#000000" stroke="#000000" points="30.5001,-46.2613 27,-36.2614 23.5001,-46.2614 30.5001,-46.2613"/>
</g>
</g>
</svg>
