<?xml version="1.0" encoding="UTF-8" standalone="no"?>
<!DOCTYPE svg PUBLIC "-//W3C//DTD SVG 1.1//EN"
 "http://www.w3.org/Graphics/SVG/1.1/DTD/svg11.dtd">
<!-- Generated by graphviz version 2.40.1 (20161225.0304)
 -->
<!-- Title: DD Pages: 1 -->
<svg width="96pt" height="332pt"
 viewBox="0.00 0.00 96.00 331.79" xmlns="http://www.w3.org/2000/svg" xmlns:xlink="http://www.w3.org/1999/xlink">
<g id="graph0" class="graph" transform="scale(1 1) rotate(0) translate(4 327.7931)">
<title>DD</title>
<polygon fill="#ffffff" stroke="transparent" points="-4,4 -4,-327.7931 92,-327.7931 92,4 -4,4"/>
<!-- T -->
<g id="node1" class="node">
<title>T</title>
<polygon fill="none" stroke="#000000" points="54,-36 0,-36 0,0 54,0 54,-36"/>
<text text-anchor="middle" x="27" y="-14.3" font-family="Times,serif" font-size="14.00" fill="#000000">1</text>
</g>
<!-- R -->
<g id="node2" class="node">
<title>R</title>
<ellipse fill="#000000" stroke="#000000" cx="45" cy="-321.9931" rx="1.8" ry="1.8"/>
</g>
<!-- 0 -->
<g id="node3" class="node">
<title>0</title>
<ellipse fill="#d3d3d3" stroke="#000000" cx="45" cy="-263.6948" rx="19.4965" ry="19.4965"/>
<text text-anchor="middle" x="45" y="-259.9948" font-family="Times,serif" font-size="14.00" fill="#000000">q1</text>
</g>
<!-- R&#45;&gt;0 -->
<g id="edge1" class="edge">
<title>R&#45;&gt;0</title>
<path fill="none" stroke="#000000" d="M45,-320.0534C45,-315.6969 45,-304.6399 45,-293.4617"/>
<polygon fill="#000000" stroke="#000000" points="48.5001,-293.3506 45,-283.3507 41.5001,-293.3507 48.5001,-293.3506"/>
</g>
<!-- 0h0 -->
<g id="node4" class="node">
<title>0h0</title>
<ellipse fill="#000000" stroke="#000000" cx="19" cy="-205.3965" rx="1.8" ry="1.8"/>
</g>
<!-- 0&#45;&gt;0h0 -->
<g id="edge2" class="edge">
<title>0&#45;&gt;0h0</title>
<path fill="none" stroke="#006400" d="M37.0579,-245.8866C30.7259,-231.6889 22.4973,-213.2384 19.8558,-207.3155"/>
</g>
<!-- 0h2 -->
<g id="node5" class="node">
<title>0h2</title>
<ellipse fill="#000000" stroke="#000000" cx="64" cy="-205.3965" rx="1.8" ry="1.8"/>
</g>
<!-- 0&#45;&gt;0h2 -->
<g id="edge4" class="edge">
<title>0&#45;&gt;0h2</title>
<path fill="none" stroke="#ff0000" d="M51.1163,-244.928C55.716,-230.8147 61.533,-212.9662 63.3967,-207.2477"/>
</g>
<!-- 1 -->
<g id="node6" class="node">
<title>1</title>
<ellipse fill="#d3d3d3" stroke="#000000" cx="39" cy="-133.0983" rx="19.4965" ry="19.4965"/>
<text text-anchor="middle" x="39" y="-129.3983" font-family="Times,serif" font-size="14.00" fill="#000000">q0</text>
</g>
<!-- 0h0&#45;&gt;1 -->
<g id="edge3" class="edge">
<title>0h0&#45;&gt;1</title>
<path fill="none" stroke="#000000" d="M18.1853,-203.7652C15.7811,-198.7262 9.1202,-183.0013 13,-170.5965 14.5851,-165.5285 17.1227,-160.5436 20.0053,-155.9457"/>
<polygon fill="#000000" stroke="#000000" points="22.939,-157.8582 25.8141,-147.6609 17.2074,-153.8396 22.939,-157.8582"/>
<text text-anchor="middle" x="28.5" y="-174.3965" font-family="Times,serif" font-size="14.00" fill="#000000"> (√½)</text>
</g>
<!-- 0h2&#45;&gt;1 -->
<g id="edge5" class="edge">
<title>0h2&#45;&gt;1</title>
<path fill="none" stroke="#000000" d="M63.382,-203.6094C61.3455,-197.7199 54.6407,-178.3301 48.7765,-161.3712"/>
<polygon fill="#000000" stroke="#000000" points="52.0384,-160.0945 45.4625,-151.7874 45.4228,-162.3821 52.0384,-160.0945"/>
<text text-anchor="middle" x="72.5" y="-174.3965" font-family="Times,serif" font-size="14.00" fill="#000000"> (√½)</text>
</g>
<!-- 1h0 -->
<g id="node7" class="node">
<title>1h0</title>
<ellipse fill="#000000" stroke="#000000" cx="27" cy="-74.8" rx="1.8" ry="1.8"/>
</g>
<!-- 1&#45;&gt;1h0 -->
<g id="edge6" class="edge">
<title>1&#45;&gt;1h0</title>
<path fill="none" stroke="#006400" d="M35.0042,-113.6858C32.1133,-99.6416 28.5213,-82.1906 27.3719,-76.6067"/>
</g>
<!-- 1h2 -->
<g id="node8" class="node">
<title>1h2</title>
<ellipse fill="#ff0000" stroke="#ff0000" cx="52" cy="-74.8" rx="1.8" ry="1.8"/>
</g>
<!-- 1&#45;&gt;1h2 -->
<g id="edge8" class="edge">
<title>1&#45;&gt;1h2</title>
<path fill="none" stroke="#ff0000" d="M43.2567,-114.0092C46.3964,-99.9293 50.332,-82.2799 51.5922,-76.6289"/>
</g>
<!-- 1h0&#45;&gt;T -->
<g id="edge7" class="edge">
<title>1h0&#45;&gt;T</title>
<path fill="none" stroke="#000000" d="M27,-72.9102C27,-68.5478 27,-57.2893 27,-46.0942"/>
<polygon fill="#000000" stroke="#000000" points="30.5001,-46.0304 27,-36.0304 23.5001,-46.0304 30.5001,-46.0304"/>
</g>
</g>
</svg>
