<?xml version="1.0" encoding="UTF-8" standalone="no"?>
<!DOCTYPE svg PUBLIC "-//W3C//DTD SVG 1.1//EN"
 "http://www.w3.org/Graphics/SVG/1.1/DTD/svg11.dtd">
<!-- Generated by graphviz version 2.40.1 (20161225.0304)
 -->
<!-- Title: DD Pages: 1 -->
<svg width="76pt" height="313pt"
 viewBox="0.00 0.00 76.50 312.79" xmlns="http://www.w3.org/2000/svg" xmlns:xlink="http://www.w3.org/1999/xlink">
<g id="graph0" class="graph" transform="scale(1 1) rotate(0) translate(4 308.7931)">
<title>DD</title>
<polygon fill="#ffffff" stroke="transparent" points="-4,4 -4,-308.7931 72.4983,-308.7931 72.4983,4 -4,4"/>
<!-- T -->
<g id="node1" class="node">
<title>T</title>
<polygon fill="none" stroke="#000000" points="54,-36 0,-36 0,0 54,0 54,-36"/>
<text text-anchor="middle" x="27" y="-14.3" font-family="Times,serif" font-size="14.00" fill="#000000">1</text>
</g>
<!-- R -->
<g id="node2" class="node">
<title>R</title>
<ellipse fill="#000000" stroke="#000000" cx="49" cy="-302.9931" rx="1.8" ry="1.8"/>
</g>
<!-- 0 -->
<g id="node3" class="node">
<title>0</title>
<ellipse fill="#d3d3d3" stroke="#000000" cx="49" cy="-245.6948" rx="19.4965" ry="19.4965"/>
<text text-anchor="middle" x="49" y="-241.9948" font-family="Times,serif" font-size="14.00" fill="#000000">q1</text>
</g>
<!-- R&#45;&gt;0 -->
<g id="edge1" class="edge">
<title>R&#45;&gt;0</title>
<path fill="none" stroke="#000000" d="M49,-301.0867C49,-296.8781 49,-286.3068 49,-275.5138"/>
<polygon fill="#000000" stroke="#000000" points="52.5001,-275.2984 49,-265.2984 45.5001,-275.2984 52.5001,-275.2984"/>
</g>
<!-- 0h0 -->
<g id="node4" class="node">
<title>0h0</title>
<ellipse fill="#000000" stroke="#000000" cx="38" cy="-188.3965" rx="1.8" ry="1.8"/>
</g>
<!-- 0&#45;&gt;0h0 -->
<g id="edge2" class="edge">
<title>0&#45;&gt;0h0</title>
<path fill="none" stroke="#006400" d="M45.2759,-226.2962C42.6831,-212.7903 39.5004,-196.2118 38.398,-190.4697"/>
</g>
<!-- 0h2 -->
<g id="node5" class="node">
<title>0h2</title>
<ellipse fill="#ff0000" stroke="#ff0000" cx="60" cy="-188.3965" rx="1.8" ry="1.8"/>
</g>
<!-- 0&#45;&gt;0h2 -->
<g id="edge4" class="edge">
<title>0&#45;&gt;0h2</title>
<path fill="none" stroke="#ff0000" d="M52.7241,-226.2962C55.3169,-212.7903 58.4996,-196.2118 59.602,-190.4697"/>
</g>
<!-- 1 -->
<g id="node6" class="node">
<title>1</title>
<ellipse fill="#d3d3d3" stroke="#000000" cx="38" cy="-131.0983" rx="19.4965" ry="19.4965"/>
<text text-anchor="middle" x="38" y="-127.3983" font-family="Times,serif" font-size="14.00" fill="#000000">q0</text>
</g>
<!-- 0h0&#45;&gt;1 -->
<g id="edge3" class="edge">
<title>0h0&#45;&gt;1</title>
<path fill="none" stroke="#000000" d="M38,-186.4901C38,-182.2815 38,-171.7103 38,-160.9173"/>
<polygon fill="#000000" stroke="#000000" points="41.5001,-160.7018 38,-150.7019 34.5001,-160.7019 41.5001,-160.7018"/>
</g>
<!-- 1h0 -->
<g id="node7" class="node">
<title>1h0</title>
<ellipse fill="#000000" stroke="#000000" cx="27" cy="-73.8" rx="1.8" ry="1.8"/>
</g>
<!-- 1&#45;&gt;1h0 -->
<g id="edge5" class="edge">
<title>1&#45;&gt;1h0</title>
<path fill="none" stroke="#006400" d="M34.2759,-111.6997C31.6831,-98.1938 28.5004,-81.6153 27.398,-75.8731"/>
</g>
<!-- 1h2 -->
<g id="node8" class="node">
<title>1h2</title>
<ellipse fill="#ff0000" stroke="#ff0000" cx="49" cy="-73.8" rx="1.8" ry="1.8"/>
</g>
<!-- 1&#45;&gt;1h2 -->
<g id="edge7" class="edge">
<title>1&#45;&gt;1h2</title>
<path fill="none" stroke="#ff0000" d="M41.7241,-111.6997C44.3169,-98.1938 47.4996,-81.6153 48.602,-75.8731"/>
</g>
<!-- 1h0&#45;&gt;T -->
<g id="edge6" class="edge">
<title>1h0&#45;&gt;T</title>
<path fill="none" stroke="#000000" d="M27,-71.9434C27,-67.7589 27,-57.1154 27,-46.3776"/>
<polygon fill="#000000" stroke="#000000" points="30.5001,-46.2613 27,-36.2614 23.5001,-46.2614 30.5001,-46.2613"/>
</g>
</g>
</svg>
